<svg width="23" height="37" viewBox="0 0 23 37" fill="none" xmlns="http://www.w3.org/2000/svg">
<mask id="path-1-inside-1" fill="white">
<path d="M13.4336 0.447847C13.3198 0.243744 13.1047 0.117188 12.871 0.117188H10.0233C9.79001 0.117188 9.57449 0.243744 9.46069 0.447847L0.918274 15.7525C0.864899 15.8485 0.8367 15.9566 0.8367 16.0667V16.7787C0.8367 16.9006 0.871277 17.0197 0.936402 17.1228L4.58305 22.8964H2.19291C1.83707 22.8964 1.54837 23.1848 1.54837 23.5409C1.54837 23.8968 1.83707 24.1855 2.19291 24.1855H2.26038V26.3883C2.26038 26.7445 2.54874 27.0328 2.90491 27.0328H3.68372V29.236C3.68372 29.5918 3.97242 29.8805 4.32826 29.8805H5.10774V32.081V32.0834V32.086V36.3544C5.10774 36.7106 5.39644 36.9989 5.75227 36.9989H17.142C17.4979 36.9989 17.7866 36.7106 17.7866 36.3544V29.8805H18.5657C18.9216 29.8805 19.2103 29.5918 19.2103 29.236V27.0328H19.9894C20.3452 27.0328 20.6339 26.7445 20.6339 26.3883V24.1855H20.7014C21.0573 24.1855 21.346 23.8968 21.346 23.5409C21.346 23.1848 21.0573 22.8964 20.7014 22.8964H19.9911C19.9904 22.8964 19.9901 22.8964 19.9894 22.8964C19.9887 22.8964 19.9884 22.8964 19.9877 22.8964H18.3113L21.9579 17.1228C22.023 17.0197 22.0576 16.9006 22.0576 16.7787V16.0667C22.0576 15.9566 22.0294 15.8485 21.9757 15.7525L13.4336 0.447847ZM11.4473 14.2197C11.877 14.2197 12.2265 14.5692 12.2265 14.9989C12.2265 15.4285 11.877 15.778 11.4473 15.778C11.0176 15.778 10.6682 15.4285 10.6682 14.9989C10.6682 14.5692 11.0176 14.2197 11.4473 14.2197ZM17.9212 28.5911H10.8495C10.4936 28.5911 10.2049 28.8798 10.2049 29.2357C10.2049 29.5918 10.4936 29.8802 10.8495 29.8802H16.4975V31.4385H15.718C15.3622 31.4385 15.0735 31.7269 15.0735 32.083C15.0735 32.4392 15.3622 32.7276 15.718 32.7276H16.4972V35.7099H6.39681V32.7279H7.17595C7.53179 32.7279 7.82049 32.4395 7.82049 32.0834C7.82049 31.7272 7.53179 31.4388 7.17595 31.4388H6.39681V29.8802H8.09542C8.45159 29.8802 8.73995 29.5918 8.73995 29.2357C8.73995 28.8798 8.45159 28.5911 8.09542 28.5911H4.97279V27.0328H17.9212V28.5911ZM19.3449 25.7438H3.54945V24.1855H17.14H17.1414H17.1427H19.3449V25.7438ZM20.7686 16.5921L19.4842 18.6254H17.8537C17.4979 18.6254 17.2092 18.9137 17.2092 19.2699C17.2092 19.6261 17.4979 19.9144 17.8537 19.9144H18.6701L16.7865 22.8964H12.0915V21.4053C12.0915 21.0494 11.8032 20.7607 11.447 20.7607C11.0912 20.7607 10.8025 21.0494 10.8025 21.4053V22.8964H6.10744L4.22419 19.9144H5.04027C5.39644 19.9144 5.6848 19.6261 5.6848 19.2699C5.6848 18.9137 5.39644 18.6254 5.04027 18.6254H3.4098L2.12577 16.5921V16.2342L10.402 1.40625H10.8025V13.034C9.97699 13.3056 9.37878 14.0834 9.37878 14.9985C9.37878 16.1392 10.3066 17.0671 11.447 17.0671C12.5877 17.0671 13.5155 16.1392 13.5155 14.9985C13.5155 14.0834 12.9173 13.3053 12.0919 13.034V1.40625H12.4923L20.7686 16.2342V16.5921Z"/>
</mask>
<path d="M13.4336 0.447847C13.3198 0.243744 13.1047 0.117188 12.871 0.117188H10.0233C9.79001 0.117188 9.57449 0.243744 9.46069 0.447847L0.918274 15.7525C0.864899 15.8485 0.8367 15.9566 0.8367 16.0667V16.7787C0.8367 16.9006 0.871277 17.0197 0.936402 17.1228L4.58305 22.8964H2.19291C1.83707 22.8964 1.54837 23.1848 1.54837 23.5409C1.54837 23.8968 1.83707 24.1855 2.19291 24.1855H2.26038V26.3883C2.26038 26.7445 2.54874 27.0328 2.90491 27.0328H3.68372V29.236C3.68372 29.5918 3.97242 29.8805 4.32826 29.8805H5.10774V32.081V32.0834V32.086V36.3544C5.10774 36.7106 5.39644 36.9989 5.75227 36.9989H17.142C17.4979 36.9989 17.7866 36.7106 17.7866 36.3544V29.8805H18.5657C18.9216 29.8805 19.2103 29.5918 19.2103 29.236V27.0328H19.9894C20.3452 27.0328 20.6339 26.7445 20.6339 26.3883V24.1855H20.7014C21.0573 24.1855 21.346 23.8968 21.346 23.5409C21.346 23.1848 21.0573 22.8964 20.7014 22.8964H19.9911C19.9904 22.8964 19.9901 22.8964 19.9894 22.8964C19.9887 22.8964 19.9884 22.8964 19.9877 22.8964H18.3113L21.9579 17.1228C22.023 17.0197 22.0576 16.9006 22.0576 16.7787V16.0667C22.0576 15.9566 22.0294 15.8485 21.9757 15.7525L13.4336 0.447847ZM11.4473 14.2197C11.877 14.2197 12.2265 14.5692 12.2265 14.9989C12.2265 15.4285 11.877 15.778 11.4473 15.778C11.0176 15.778 10.6682 15.4285 10.6682 14.9989C10.6682 14.5692 11.0176 14.2197 11.4473 14.2197ZM17.9212 28.5911H10.8495C10.4936 28.5911 10.2049 28.8798 10.2049 29.2357C10.2049 29.5918 10.4936 29.8802 10.8495 29.8802H16.4975V31.4385H15.718C15.3622 31.4385 15.0735 31.7269 15.0735 32.083C15.0735 32.4392 15.3622 32.7276 15.718 32.7276H16.4972V35.7099H6.39681V32.7279H7.17595C7.53179 32.7279 7.82049 32.4395 7.82049 32.0834C7.82049 31.7272 7.53179 31.4388 7.17595 31.4388H6.39681V29.8802H8.09542C8.45159 29.8802 8.73995 29.5918 8.73995 29.2357C8.73995 28.8798 8.45159 28.5911 8.09542 28.5911H4.97279V27.0328H17.9212V28.5911ZM19.3449 25.7438H3.54945V24.1855H17.14H17.1414H17.1427H19.3449V25.7438ZM20.7686 16.5921L19.4842 18.6254H17.8537C17.4979 18.6254 17.2092 18.9137 17.2092 19.2699C17.2092 19.6261 17.4979 19.9144 17.8537 19.9144H18.6701L16.7865 22.8964H12.0915V21.4053C12.0915 21.0494 11.8032 20.7607 11.447 20.7607C11.0912 20.7607 10.8025 21.0494 10.8025 21.4053V22.8964H6.10744L4.22419 19.9144H5.04027C5.39644 19.9144 5.6848 19.6261 5.6848 19.2699C5.6848 18.9137 5.39644 18.6254 5.04027 18.6254H3.4098L2.12577 16.5921V16.2342L10.402 1.40625H10.8025V13.034C9.97699 13.3056 9.37878 14.0834 9.37878 14.9985C9.37878 16.1392 10.3066 17.0671 11.447 17.0671C12.5877 17.0671 13.5155 16.1392 13.5155 14.9985C13.5155 14.0834 12.9173 13.3053 12.0919 13.034V1.40625H12.4923L20.7686 16.2342V16.5921Z" fill="white" stroke="white" stroke-width="2" mask="url(#path-1-inside-1)"/>
</svg>
