<svg width="44" height="40" viewBox="0 0 44 40" fill="none" xmlns="http://www.w3.org/2000/svg">
<path d="M44 12.1814C44 10.2559 42.4337 8.68951 40.5081 8.68951H36.1696V6.48669C36.1696 6.13086 35.8813 5.84216 35.5251 5.84216H34.0339V2.21567C34.0339 1.85983 33.7456 1.57114 33.3894 1.57114H28.3392V0.791992C28.3392 0.436157 28.0505 0.147461 27.6947 0.147461H16.305C15.9491 0.147461 15.6604 0.436157 15.6604 0.791992V1.57114H10.6103C10.2541 1.57114 9.96573 1.85983 9.96573 2.21567V5.84216H8.47458C8.11874 5.84216 7.83005 6.13086 7.83005 6.48669V8.68951H3.49188C1.56635 8.68951 0 10.2559 0 12.1814V20.7238C0 21.08 0.288696 21.3683 0.644531 21.3683H1.42334V36.3846C1.42334 38.3101 2.99002 39.8764 4.91522 39.8764H39.0844C41.01 39.8764 42.5763 38.3101 42.5763 36.3846V21.3683H43.3555C43.5263 21.3683 43.6905 21.3005 43.8113 21.1797C43.9322 21.0588 44 20.895 44 20.7238V12.1814ZM34.8806 7.13123V8.68951H31.8986V7.13123H34.8806ZM16.9495 1.43652H27.0502V2.99481H16.9495V1.43652ZM9.11911 7.13123H12.1014V8.68951H9.11911V7.13123ZM41.2873 36.3846C41.2873 37.5994 40.299 38.5874 39.0844 38.5874H4.91522C3.70068 38.5874 2.7124 37.5994 2.7124 36.3846V21.3683H7.11804V22.9266H6.3389C5.98306 22.9266 5.69437 23.2153 5.69437 23.5711V26.4185C5.69437 26.7743 5.98306 27.063 6.3389 27.063H7.11804V29.2658C7.11804 29.5102 7.25601 29.7331 7.47455 29.8422L10.3219 31.2662C10.4125 31.3119 10.5112 31.3344 10.6103 31.3344C10.709 31.3344 10.8076 31.3119 10.8983 31.2662L13.7456 29.8422C13.9638 29.7331 14.1021 29.5102 14.1021 29.2658V27.063H14.881C15.2371 27.063 15.5255 26.7743 15.5255 26.4185V23.5711C15.5255 23.2153 15.2371 22.9266 14.881 22.9266H14.1021V21.3683H18.5078V24.2831C18.5078 24.639 18.7965 24.9277 19.1523 24.9277H24.8474C25.2032 24.9277 25.4919 24.639 25.4919 24.2831V21.3683H29.8975V22.9266H29.1184C28.7622 22.9266 28.4738 23.2153 28.4738 23.5711V26.4185C28.4738 26.7743 28.7622 27.063 29.1184 27.063H29.8975V29.2658C29.8975 29.5099 30.0352 29.7331 30.2537 29.8422L33.101 31.2662C33.1917 31.3119 33.2907 31.3344 33.3894 31.3344C33.4881 31.3344 33.5868 31.3119 33.6778 31.2662L36.5251 29.8422C36.7433 29.7331 36.8813 29.5102 36.8813 29.2658V27.063H37.6604C38.0166 27.063 38.305 26.7743 38.305 26.4185V23.5711C38.305 23.2153 38.0166 22.9266 37.6604 22.9266H36.8813V21.3683H41.2873V36.3846ZM8.40744 20.7255C8.40744 20.7251 8.40744 20.7245 8.40744 20.7238C8.40744 20.7234 8.40744 20.7228 8.40744 20.7221V18.521H12.8131V22.9266H8.40744V20.7255ZM6.98376 17.2319V15.6733H14.2368V17.2319H6.98376ZM14.2368 24.2157V25.774H6.98376V24.2157H14.2368ZM12.8131 27.063V28.8677L10.6103 29.9695L8.40744 28.8677V27.063H12.8131ZM21.3555 21.3683V22.1475C21.3555 22.5036 21.6438 22.792 22 22.792C22.3558 22.792 22.6445 22.5036 22.6445 22.1475V21.3683H24.2028V23.6386H19.7968V21.3683H21.3555ZM19.7968 20.0793V19.233H24.2028V20.0793H19.7968ZM31.1866 20.7255C31.1866 20.7251 31.1866 20.7245 31.1866 20.7238C31.1866 20.7234 31.1866 20.7228 31.1866 20.7221V18.521H35.5922V22.9266H31.1866V20.7255ZM29.7629 17.2319V15.6733H37.0159V17.2319H29.7629ZM37.0159 24.2157V25.774H29.7629V24.2157H37.0159ZM35.5922 27.063V28.8677L33.3894 29.9695L31.1866 28.8677V27.063H35.5922ZM41.9345 20.0793C41.9335 20.0793 41.9328 20.0793 41.9318 20.0793C41.9311 20.0793 41.9301 20.0793 41.9294 20.0793H36.8813V18.521H37.6604C38.0166 18.521 38.305 18.2323 38.305 17.8764V15.6736H38.3724C38.7286 15.6736 39.017 15.3849 39.017 15.0291C39.017 14.6729 38.7286 14.3846 38.3724 14.3846H28.4067C28.0505 14.3846 27.7622 14.6729 27.7622 15.0291C27.7622 15.3849 28.0505 15.6736 28.4067 15.6736H28.4738V17.8764C28.4738 18.2323 28.7625 18.521 29.1184 18.521H29.8975V20.0793H25.4919V18.5884C25.4919 18.2323 25.2032 17.9439 24.8474 17.9439H19.1523C18.7965 17.9439 18.5078 18.2323 18.5078 18.5884V20.0793H14.1021V18.521H14.8813C15.2371 18.521 15.5258 18.2323 15.5258 17.8764V15.6736H15.5933C15.9491 15.6736 16.2378 15.3849 16.2378 15.0291C16.2378 14.6729 15.9491 14.3846 15.5933 14.3846H5.62723C5.27139 14.3846 4.9827 14.6729 4.9827 15.0291C4.9827 15.3849 5.27139 15.6736 5.62723 15.6736H5.6947V17.8764C5.6947 18.2323 5.98306 18.521 6.33923 18.521H7.11838V20.0793H1.28906V12.1814C1.28906 10.9669 2.27734 9.97858 3.49188 9.97858H15.5933C15.9491 9.97858 16.2378 9.68988 16.2378 9.33405C16.2378 8.97821 15.9491 8.68951 15.5933 8.68951H13.3905V6.48669C13.3905 6.13086 13.1018 5.84216 12.7459 5.84216H11.2548V2.8602H15.6604V3.63934C15.6604 3.99551 15.9491 4.28387 16.305 4.28387H27.6947C28.0505 4.28387 28.3392 3.99551 28.3392 3.63934V2.8602H32.7452V5.84216H31.2541C30.8979 5.84216 30.6095 6.13086 30.6095 6.48669V8.68951H18.1754C17.8196 8.68951 17.5309 8.97821 17.5309 9.33405C17.5309 9.68988 17.8196 9.97858 18.1754 9.97858H40.5081C41.7227 9.97858 42.7109 10.9669 42.7109 12.1814V20.0793H41.9345Z" fill="white"/>
</svg>
